<mxfile host="65bd71144e">
    <diagram id="38Q4WbtBEE8uO13b0ask" name="ページ1">
        <mxGraphModel dx="1410" dy="1976" grid="1" gridSize="10" guides="1" tooltips="1" connect="1" arrows="1" fold="1" page="1" pageScale="1" pageWidth="827" pageHeight="1169" math="0" shadow="0">
            <root>
                <mxCell id="0"/>
                <mxCell id="1" parent="0"/>
                <mxCell id="216" style="edgeStyle=none;html=1;fontSize=11;fontColor=#000000;endArrow=ERmany;endFill=0;strokeWidth=2;endSize=20;startArrow=ERone;startFill=0;targetPerimeterSpacing=0;sourcePerimeterSpacing=0;startSize=20;entryX=0.497;entryY=1;entryDx=0;entryDy=0;exitX=1;exitY=0.5;exitDx=0;exitDy=0;entryPerimeter=0;" parent="1" source="94" target="142" edge="1">
                    <mxGeometry relative="1" as="geometry">
                        <mxPoint x="610" y="-500" as="sourcePoint"/>
                        <Array as="points">
                            <mxPoint x="1184" y="-457"/>
                        </Array>
                    </mxGeometry>
                </mxCell>
                <mxCell id="67" value="Users" style="shape=table;startSize=30;container=1;collapsible=0;childLayout=tableLayout;fontStyle=1;align=center;pointerEvents=1;" parent="1" vertex="1">
                    <mxGeometry x="487" y="-777" width="440" height="488" as="geometry"/>
                </mxCell>
                <mxCell id="68" value="" style="shape=partialRectangle;html=1;whiteSpace=wrap;collapsible=0;dropTarget=0;pointerEvents=0;fillColor=none;top=0;left=0;bottom=0;right=0;points=[[0,0.5],[1,0.5]];portConstraint=eastwest;" parent="67" vertex="1">
                    <mxGeometry y="30" width="440" height="48" as="geometry"/>
                </mxCell>
                <mxCell id="69" value="&lt;span style=&quot;text-align: left&quot;&gt;nickname&lt;/span&gt;" style="shape=partialRectangle;html=1;whiteSpace=wrap;connectable=0;fillColor=none;top=0;left=0;bottom=0;right=0;overflow=hidden;pointerEvents=1;" parent="68" vertex="1">
                    <mxGeometry width="219" height="48" as="geometry">
                        <mxRectangle width="219" height="48" as="alternateBounds"/>
                    </mxGeometry>
                </mxCell>
                <mxCell id="70" value="presence: true" style="shape=partialRectangle;html=1;whiteSpace=wrap;connectable=0;fillColor=none;top=0;left=0;bottom=0;right=0;overflow=hidden;pointerEvents=1;" parent="68" vertex="1">
                    <mxGeometry x="219" width="221" height="48" as="geometry">
                        <mxRectangle width="221" height="48" as="alternateBounds"/>
                    </mxGeometry>
                </mxCell>
                <mxCell id="72" value="" style="shape=partialRectangle;html=1;whiteSpace=wrap;collapsible=0;dropTarget=0;pointerEvents=0;fillColor=none;top=0;left=0;bottom=0;right=0;points=[[0,0.5],[1,0.5]];portConstraint=eastwest;" parent="67" vertex="1">
                    <mxGeometry y="78" width="440" height="49" as="geometry"/>
                </mxCell>
                <mxCell id="73" value="&lt;div style=&quot;text-align: left&quot;&gt;&lt;span&gt;email&lt;/span&gt;&lt;/div&gt;" style="shape=partialRectangle;html=1;whiteSpace=wrap;connectable=0;fillColor=none;top=0;left=0;bottom=0;right=0;overflow=hidden;pointerEvents=1;" parent="72" vertex="1">
                    <mxGeometry width="219" height="49" as="geometry">
                        <mxRectangle width="219" height="49" as="alternateBounds"/>
                    </mxGeometry>
                </mxCell>
                <mxCell id="74" value="&lt;span&gt;presence: true&lt;br&gt;uniqueness: true&lt;br&gt;format: { with: /@/}&lt;br&gt;&lt;/span&gt;" style="shape=partialRectangle;html=1;whiteSpace=wrap;connectable=0;fillColor=none;top=0;left=0;bottom=0;right=0;overflow=hidden;pointerEvents=1;" parent="72" vertex="1">
                    <mxGeometry x="219" width="221" height="49" as="geometry">
                        <mxRectangle width="221" height="49" as="alternateBounds"/>
                    </mxGeometry>
                </mxCell>
                <mxCell id="76" value="" style="shape=partialRectangle;html=1;whiteSpace=wrap;collapsible=0;dropTarget=0;pointerEvents=0;fillColor=none;top=0;left=0;bottom=0;right=0;points=[[0,0.5],[1,0.5]];portConstraint=eastwest;" parent="67" vertex="1">
                    <mxGeometry y="127" width="440" height="60" as="geometry"/>
                </mxCell>
                <mxCell id="77" value="&lt;span style=&quot;text-align: left&quot;&gt;encrypted_password&lt;br&gt;&lt;/span&gt;" style="shape=partialRectangle;html=1;whiteSpace=wrap;connectable=0;fillColor=none;top=0;left=0;bottom=0;right=0;overflow=hidden;pointerEvents=1;" parent="76" vertex="1">
                    <mxGeometry width="219" height="60" as="geometry">
                        <mxRectangle width="219" height="60" as="alternateBounds"/>
                    </mxGeometry>
                </mxCell>
                <mxCell id="78" value="&lt;span&gt;presence: true&lt;br&gt;format: {with: /\A(?=.*?[a-z])(?=.*?[\d])[a-z\d]+{6}\z/i}&lt;br&gt;&lt;/span&gt;" style="shape=partialRectangle;html=1;whiteSpace=wrap;connectable=0;fillColor=none;top=0;left=0;bottom=0;right=0;overflow=hidden;pointerEvents=1;" parent="76" vertex="1">
                    <mxGeometry x="219" width="221" height="60" as="geometry">
                        <mxRectangle width="221" height="60" as="alternateBounds"/>
                    </mxGeometry>
                </mxCell>
                <mxCell id="225" style="shape=partialRectangle;html=1;whiteSpace=wrap;collapsible=0;dropTarget=0;pointerEvents=0;fillColor=none;top=0;left=0;bottom=0;right=0;points=[[0,0.5],[1,0.5]];portConstraint=eastwest;" vertex="1" parent="67">
                    <mxGeometry y="187" width="440" height="60" as="geometry"/>
                </mxCell>
                <mxCell id="226" value="encrypted_password_confirmation" style="shape=partialRectangle;html=1;whiteSpace=wrap;connectable=0;fillColor=none;top=0;left=0;bottom=0;right=0;overflow=hidden;pointerEvents=1;" vertex="1" parent="225">
                    <mxGeometry width="219" height="60" as="geometry">
                        <mxRectangle width="219" height="60" as="alternateBounds"/>
                    </mxGeometry>
                </mxCell>
                <mxCell id="227" value="&lt;span&gt;presence: true&lt;/span&gt;&lt;br&gt;&lt;span&gt;format: {with: /\A(?=.*?[a-z])(?=.*?[\d])[a-z\d]+{6}\z/i}&lt;/span&gt;" style="shape=partialRectangle;html=1;whiteSpace=wrap;connectable=0;fillColor=none;top=0;left=0;bottom=0;right=0;overflow=hidden;pointerEvents=1;" vertex="1" parent="225">
                    <mxGeometry x="219" width="221" height="60" as="geometry">
                        <mxRectangle width="221" height="60" as="alternateBounds"/>
                    </mxGeometry>
                </mxCell>
                <mxCell id="85" style="shape=partialRectangle;html=1;whiteSpace=wrap;collapsible=0;dropTarget=0;pointerEvents=0;fillColor=none;top=0;left=0;bottom=0;right=0;points=[[0,0.5],[1,0.5]];portConstraint=eastwest;" parent="67" vertex="1">
                    <mxGeometry y="247" width="440" height="49" as="geometry"/>
                </mxCell>
                <mxCell id="86" value="&lt;span style=&quot;text-align: left&quot;&gt;last_name&lt;/span&gt;" style="shape=partialRectangle;html=1;whiteSpace=wrap;connectable=0;fillColor=none;top=0;left=0;bottom=0;right=0;overflow=hidden;pointerEvents=1;" parent="85" vertex="1">
                    <mxGeometry width="219" height="49" as="geometry">
                        <mxRectangle width="219" height="49" as="alternateBounds"/>
                    </mxGeometry>
                </mxCell>
                <mxCell id="87" value="&lt;span&gt;presence: true&lt;br&gt;format:{ with: /&lt;/span&gt;&lt;font style=&quot;font-size: 11px&quot;&gt;&lt;span style=&quot;font-family: &amp;#34;hiragino sans&amp;#34;&quot;&gt;[ぁ&lt;/span&gt;&lt;span class=&quot;s1&quot; style=&quot;font-stretch: normal ; line-height: normal ; font-family: &amp;#34;helvetica neue&amp;#34;&quot;&gt;-&lt;/span&gt;&lt;span style=&quot;font-family: &amp;#34;hiragino sans&amp;#34;&quot;&gt;んァ&lt;/span&gt;&lt;span class=&quot;s1&quot; style=&quot;font-stretch: normal ; line-height: normal ; font-family: &amp;#34;helvetica neue&amp;#34;&quot;&gt;-&lt;/span&gt;&lt;span style=&quot;font-family: &amp;#34;hiragino sans&amp;#34;&quot;&gt;ヶ一&lt;/span&gt;&lt;span class=&quot;s1&quot; style=&quot;font-stretch: normal ; line-height: normal ; font-family: &amp;#34;helvetica neue&amp;#34;&quot;&gt;-&lt;/span&gt;&lt;span style=&quot;font-family: &amp;#34;hiragino sans&amp;#34;&quot;&gt;龥々]/}&lt;/span&gt;&lt;/font&gt;" style="shape=partialRectangle;html=1;whiteSpace=wrap;connectable=0;fillColor=none;top=0;left=0;bottom=0;right=0;overflow=hidden;pointerEvents=1;" parent="85" vertex="1">
                    <mxGeometry x="219" width="221" height="49" as="geometry">
                        <mxRectangle width="221" height="49" as="alternateBounds"/>
                    </mxGeometry>
                </mxCell>
                <mxCell id="88" style="shape=partialRectangle;html=1;whiteSpace=wrap;collapsible=0;dropTarget=0;pointerEvents=0;fillColor=none;top=0;left=0;bottom=0;right=0;points=[[0,0.5],[1,0.5]];portConstraint=eastwest;" parent="67" vertex="1">
                    <mxGeometry y="296" width="440" height="47" as="geometry"/>
                </mxCell>
                <mxCell id="89" value="&lt;span style=&quot;text-align: left&quot;&gt;first_name&lt;/span&gt;" style="shape=partialRectangle;html=1;whiteSpace=wrap;connectable=0;fillColor=none;top=0;left=0;bottom=0;right=0;overflow=hidden;pointerEvents=1;" parent="88" vertex="1">
                    <mxGeometry width="219" height="47" as="geometry">
                        <mxRectangle width="219" height="47" as="alternateBounds"/>
                    </mxGeometry>
                </mxCell>
                <mxCell id="90" value="presence: true&lt;br&gt;format:{ with: /&lt;font style=&quot;font-size: 11px&quot;&gt;&lt;span style=&quot;font-family: &amp;#34;hiragino sans&amp;#34;&quot;&gt;[ぁ&lt;/span&gt;&lt;span class=&quot;s1&quot; style=&quot;font-stretch: normal ; line-height: normal ; font-family: &amp;#34;helvetica neue&amp;#34;&quot;&gt;-&lt;/span&gt;&lt;span style=&quot;font-family: &amp;#34;hiragino sans&amp;#34;&quot;&gt;んァ&lt;/span&gt;&lt;span class=&quot;s1&quot; style=&quot;font-stretch: normal ; line-height: normal ; font-family: &amp;#34;helvetica neue&amp;#34;&quot;&gt;-&lt;/span&gt;&lt;span style=&quot;font-family: &amp;#34;hiragino sans&amp;#34;&quot;&gt;ヶ一&lt;/span&gt;&lt;span class=&quot;s1&quot; style=&quot;font-stretch: normal ; line-height: normal ; font-family: &amp;#34;helvetica neue&amp;#34;&quot;&gt;-&lt;/span&gt;&lt;span style=&quot;font-family: &amp;#34;hiragino sans&amp;#34;&quot;&gt;龥々]/}&lt;/span&gt;&lt;/font&gt;" style="shape=partialRectangle;html=1;whiteSpace=wrap;connectable=0;fillColor=none;top=0;left=0;bottom=0;right=0;overflow=hidden;pointerEvents=1;" parent="88" vertex="1">
                    <mxGeometry x="219" width="221" height="47" as="geometry">
                        <mxRectangle width="221" height="47" as="alternateBounds"/>
                    </mxGeometry>
                </mxCell>
                <mxCell id="91" style="shape=partialRectangle;html=1;whiteSpace=wrap;collapsible=0;dropTarget=0;pointerEvents=0;fillColor=none;top=0;left=0;bottom=0;right=0;points=[[0,0.5],[1,0.5]];portConstraint=eastwest;" parent="67" vertex="1">
                    <mxGeometry y="343" width="440" height="48" as="geometry"/>
                </mxCell>
                <mxCell id="92" value="&lt;span style=&quot;text-align: left&quot;&gt;last_name_katakana&lt;/span&gt;" style="shape=partialRectangle;html=1;whiteSpace=wrap;connectable=0;fillColor=none;top=0;left=0;bottom=0;right=0;overflow=hidden;pointerEvents=1;" parent="91" vertex="1">
                    <mxGeometry width="219" height="48" as="geometry">
                        <mxRectangle width="219" height="48" as="alternateBounds"/>
                    </mxGeometry>
                </mxCell>
                <mxCell id="93" value="presence: true&lt;br&gt;format:{ with: /&lt;font style=&quot;font-size: 11px&quot;&gt;&lt;span style=&quot;font-family: &amp;#34;hiragino sans&amp;#34;&quot;&gt;[ァ&lt;/span&gt;&lt;span style=&quot;background-color: rgb(255 , 255 , 255) ; font-family: &amp;#34;menlo&amp;#34; , &amp;#34;monaco&amp;#34; , &amp;#34;courier new&amp;#34; , monospace ; font-size: 12px&quot;&gt;-ヶ&lt;/span&gt;&lt;/font&gt;&lt;span style=&quot;font-family: &amp;#34;hiragino sans&amp;#34; ; font-size: 11px&quot;&gt;]/}&lt;/span&gt;" style="shape=partialRectangle;html=1;whiteSpace=wrap;connectable=0;fillColor=none;top=0;left=0;bottom=0;right=0;overflow=hidden;pointerEvents=1;" parent="91" vertex="1">
                    <mxGeometry x="219" width="221" height="48" as="geometry">
                        <mxRectangle width="221" height="48" as="alternateBounds"/>
                    </mxGeometry>
                </mxCell>
                <mxCell id="94" style="shape=partialRectangle;html=1;whiteSpace=wrap;collapsible=0;dropTarget=0;pointerEvents=0;fillColor=none;top=0;left=0;bottom=0;right=0;points=[[0,0.5],[1,0.5]];portConstraint=eastwest;" parent="67" vertex="1">
                    <mxGeometry y="391" width="440" height="49" as="geometry"/>
                </mxCell>
                <mxCell id="95" value="&lt;span style=&quot;text-align: left&quot;&gt;first_name_katakana&lt;/span&gt;" style="shape=partialRectangle;html=1;whiteSpace=wrap;connectable=0;fillColor=none;top=0;left=0;bottom=0;right=0;overflow=hidden;pointerEvents=1;" parent="94" vertex="1">
                    <mxGeometry width="219" height="49" as="geometry">
                        <mxRectangle width="219" height="49" as="alternateBounds"/>
                    </mxGeometry>
                </mxCell>
                <mxCell id="96" value="presence: true&lt;br&gt;format:{ with: /&lt;font style=&quot;font-size: 11px&quot;&gt;&lt;span style=&quot;font-family: &amp;#34;hiragino sans&amp;#34;&quot;&gt;[ァ&lt;/span&gt;&lt;span style=&quot;background-color: rgb(255 , 255 , 255) ; font-family: &amp;#34;menlo&amp;#34; , &amp;#34;monaco&amp;#34; , &amp;#34;courier new&amp;#34; , monospace ; font-size: 12px&quot;&gt;-ヶ&lt;/span&gt;&lt;/font&gt;&lt;span style=&quot;font-family: &amp;#34;hiragino sans&amp;#34; ; font-size: 11px&quot;&gt;]/}&lt;/span&gt;" style="shape=partialRectangle;html=1;whiteSpace=wrap;connectable=0;fillColor=none;top=0;left=0;bottom=0;right=0;overflow=hidden;pointerEvents=1;" parent="94" vertex="1">
                    <mxGeometry x="219" width="221" height="49" as="geometry">
                        <mxRectangle width="221" height="49" as="alternateBounds"/>
                    </mxGeometry>
                </mxCell>
                <mxCell id="97" style="shape=partialRectangle;html=1;whiteSpace=wrap;collapsible=0;dropTarget=0;pointerEvents=0;fillColor=none;top=0;left=0;bottom=0;right=0;points=[[0,0.5],[1,0.5]];portConstraint=eastwest;" parent="67" vertex="1">
                    <mxGeometry y="440" width="440" height="48" as="geometry"/>
                </mxCell>
                <mxCell id="98" value="&lt;span style=&quot;text-align: left&quot;&gt;birthday&lt;/span&gt;" style="shape=partialRectangle;html=1;whiteSpace=wrap;connectable=0;fillColor=none;top=0;left=0;bottom=0;right=0;overflow=hidden;pointerEvents=1;" parent="97" vertex="1">
                    <mxGeometry width="219" height="48" as="geometry">
                        <mxRectangle width="219" height="48" as="alternateBounds"/>
                    </mxGeometry>
                </mxCell>
                <mxCell id="99" value="&lt;span&gt;presence: true&lt;/span&gt;" style="shape=partialRectangle;html=1;whiteSpace=wrap;connectable=0;fillColor=none;top=0;left=0;bottom=0;right=0;overflow=hidden;pointerEvents=1;" parent="97" vertex="1">
                    <mxGeometry x="219" width="221" height="48" as="geometry">
                        <mxRectangle width="221" height="48" as="alternateBounds"/>
                    </mxGeometry>
                </mxCell>
                <mxCell id="114" value="items" style="shape=table;startSize=30;container=1;collapsible=0;childLayout=tableLayout;fontStyle=1;align=center;pointerEvents=1;" parent="1" vertex="1">
                    <mxGeometry x="990" y="-1010" width="390" height="450" as="geometry"/>
                </mxCell>
                <mxCell id="115" value="" style="shape=partialRectangle;html=1;whiteSpace=wrap;collapsible=0;dropTarget=0;pointerEvents=0;fillColor=none;top=0;left=0;bottom=0;right=0;points=[[0,0.5],[1,0.5]];portConstraint=eastwest;" parent="114" vertex="1">
                    <mxGeometry y="30" width="390" height="47" as="geometry"/>
                </mxCell>
                <mxCell id="116" value="&lt;span style=&quot;text-align: left&quot;&gt;item_name&lt;/span&gt;" style="shape=partialRectangle;html=1;whiteSpace=wrap;connectable=0;fillColor=none;top=0;left=0;bottom=0;right=0;overflow=hidden;pointerEvents=1;" parent="115" vertex="1">
                    <mxGeometry width="194" height="47" as="geometry">
                        <mxRectangle width="194" height="47" as="alternateBounds"/>
                    </mxGeometry>
                </mxCell>
                <mxCell id="117" value="presence: true" style="shape=partialRectangle;html=1;whiteSpace=wrap;connectable=0;fillColor=none;top=0;left=0;bottom=0;right=0;overflow=hidden;pointerEvents=1;" parent="115" vertex="1">
                    <mxGeometry x="194" width="196" height="47" as="geometry">
                        <mxRectangle width="196" height="47" as="alternateBounds"/>
                    </mxGeometry>
                </mxCell>
                <mxCell id="118" value="" style="shape=partialRectangle;html=1;whiteSpace=wrap;collapsible=0;dropTarget=0;pointerEvents=0;fillColor=none;top=0;left=0;bottom=0;right=0;points=[[0,0.5],[1,0.5]];portConstraint=eastwest;" parent="114" vertex="1">
                    <mxGeometry y="77" width="390" height="46" as="geometry"/>
                </mxCell>
                <mxCell id="119" value="&lt;span style=&quot;text-align: left&quot;&gt;explanation&lt;/span&gt;" style="shape=partialRectangle;html=1;whiteSpace=wrap;connectable=0;fillColor=none;top=0;left=0;bottom=0;right=0;overflow=hidden;pointerEvents=1;" parent="118" vertex="1">
                    <mxGeometry width="194" height="46" as="geometry">
                        <mxRectangle width="194" height="46" as="alternateBounds"/>
                    </mxGeometry>
                </mxCell>
                <mxCell id="120" value="&lt;span&gt;presence: true&lt;br&gt;&lt;/span&gt;" style="shape=partialRectangle;html=1;whiteSpace=wrap;connectable=0;fillColor=none;top=0;left=0;bottom=0;right=0;overflow=hidden;pointerEvents=1;" parent="118" vertex="1">
                    <mxGeometry x="194" width="196" height="46" as="geometry">
                        <mxRectangle width="196" height="46" as="alternateBounds"/>
                    </mxGeometry>
                </mxCell>
                <mxCell id="121" value="" style="shape=partialRectangle;html=1;whiteSpace=wrap;collapsible=0;dropTarget=0;pointerEvents=0;fillColor=none;top=0;left=0;bottom=0;right=0;points=[[0,0.5],[1,0.5]];portConstraint=eastwest;" parent="114" vertex="1">
                    <mxGeometry y="123" width="390" height="48" as="geometry"/>
                </mxCell>
                <mxCell id="122" value="&lt;span style=&quot;text-align: left&quot;&gt;category_id&lt;/span&gt;" style="shape=partialRectangle;html=1;whiteSpace=wrap;connectable=0;fillColor=none;top=0;left=0;bottom=0;right=0;overflow=hidden;pointerEvents=1;" parent="121" vertex="1">
                    <mxGeometry width="194" height="48" as="geometry">
                        <mxRectangle width="194" height="48" as="alternateBounds"/>
                    </mxGeometry>
                </mxCell>
                <mxCell id="123" value="&lt;span&gt;presence: true&lt;br&gt;&lt;/span&gt;" style="shape=partialRectangle;html=1;whiteSpace=wrap;connectable=0;fillColor=none;top=0;left=0;bottom=0;right=0;overflow=hidden;pointerEvents=1;" parent="121" vertex="1">
                    <mxGeometry x="194" width="196" height="48" as="geometry">
                        <mxRectangle width="196" height="48" as="alternateBounds"/>
                    </mxGeometry>
                </mxCell>
                <mxCell id="124" style="shape=partialRectangle;html=1;whiteSpace=wrap;collapsible=0;dropTarget=0;pointerEvents=0;fillColor=none;top=0;left=0;bottom=0;right=0;points=[[0,0.5],[1,0.5]];portConstraint=eastwest;" parent="114" vertex="1">
                    <mxGeometry y="171" width="390" height="47" as="geometry"/>
                </mxCell>
                <mxCell id="125" value="&lt;span style=&quot;text-align: left&quot;&gt;condition_id&lt;/span&gt;" style="shape=partialRectangle;html=1;whiteSpace=wrap;connectable=0;fillColor=none;top=0;left=0;bottom=0;right=0;overflow=hidden;pointerEvents=1;" parent="124" vertex="1">
                    <mxGeometry width="194" height="47" as="geometry">
                        <mxRectangle width="194" height="47" as="alternateBounds"/>
                    </mxGeometry>
                </mxCell>
                <mxCell id="126" value="presence: true" style="shape=partialRectangle;html=1;whiteSpace=wrap;connectable=0;fillColor=none;top=0;left=0;bottom=0;right=0;overflow=hidden;pointerEvents=1;" parent="124" vertex="1">
                    <mxGeometry x="194" width="196" height="47" as="geometry">
                        <mxRectangle width="196" height="47" as="alternateBounds"/>
                    </mxGeometry>
                </mxCell>
                <mxCell id="127" style="shape=partialRectangle;html=1;whiteSpace=wrap;collapsible=0;dropTarget=0;pointerEvents=0;fillColor=none;top=0;left=0;bottom=0;right=0;points=[[0,0.5],[1,0.5]];portConstraint=eastwest;" parent="114" vertex="1">
                    <mxGeometry y="218" width="390" height="46" as="geometry"/>
                </mxCell>
                <mxCell id="128" value="&lt;span style=&quot;text-align: left&quot;&gt;shipping_cost_id&lt;/span&gt;" style="shape=partialRectangle;html=1;whiteSpace=wrap;connectable=0;fillColor=none;top=0;left=0;bottom=0;right=0;overflow=hidden;pointerEvents=1;" parent="127" vertex="1">
                    <mxGeometry width="194" height="46" as="geometry">
                        <mxRectangle width="194" height="46" as="alternateBounds"/>
                    </mxGeometry>
                </mxCell>
                <mxCell id="129" value="presence: true" style="shape=partialRectangle;html=1;whiteSpace=wrap;connectable=0;fillColor=none;top=0;left=0;bottom=0;right=0;overflow=hidden;pointerEvents=1;" parent="127" vertex="1">
                    <mxGeometry x="194" width="196" height="46" as="geometry">
                        <mxRectangle width="196" height="46" as="alternateBounds"/>
                    </mxGeometry>
                </mxCell>
                <mxCell id="130" style="shape=partialRectangle;html=1;whiteSpace=wrap;collapsible=0;dropTarget=0;pointerEvents=0;fillColor=none;top=0;left=0;bottom=0;right=0;points=[[0,0.5],[1,0.5]];portConstraint=eastwest;" parent="114" vertex="1">
                    <mxGeometry y="264" width="390" height="46" as="geometry"/>
                </mxCell>
                <mxCell id="131" value="&lt;span style=&quot;text-align: left&quot;&gt;shipment_source_id&lt;/span&gt;" style="shape=partialRectangle;html=1;whiteSpace=wrap;connectable=0;fillColor=none;top=0;left=0;bottom=0;right=0;overflow=hidden;pointerEvents=1;" parent="130" vertex="1">
                    <mxGeometry width="194" height="46" as="geometry">
                        <mxRectangle width="194" height="46" as="alternateBounds"/>
                    </mxGeometry>
                </mxCell>
                <mxCell id="132" value="presence: true" style="shape=partialRectangle;html=1;whiteSpace=wrap;connectable=0;fillColor=none;top=0;left=0;bottom=0;right=0;overflow=hidden;pointerEvents=1;" parent="130" vertex="1">
                    <mxGeometry x="194" width="196" height="46" as="geometry">
                        <mxRectangle width="196" height="46" as="alternateBounds"/>
                    </mxGeometry>
                </mxCell>
                <mxCell id="133" style="shape=partialRectangle;html=1;whiteSpace=wrap;collapsible=0;dropTarget=0;pointerEvents=0;fillColor=none;top=0;left=0;bottom=0;right=0;points=[[0,0.5],[1,0.5]];portConstraint=eastwest;" parent="114" vertex="1">
                    <mxGeometry y="310" width="390" height="48" as="geometry"/>
                </mxCell>
                <mxCell id="134" value="&lt;span style=&quot;text-align: left&quot;&gt;days_to_ship_id&lt;/span&gt;" style="shape=partialRectangle;html=1;whiteSpace=wrap;connectable=0;fillColor=none;top=0;left=0;bottom=0;right=0;overflow=hidden;pointerEvents=1;" parent="133" vertex="1">
                    <mxGeometry width="194" height="48" as="geometry">
                        <mxRectangle width="194" height="48" as="alternateBounds"/>
                    </mxGeometry>
                </mxCell>
                <mxCell id="135" value="presence: true" style="shape=partialRectangle;html=1;whiteSpace=wrap;connectable=0;fillColor=none;top=0;left=0;bottom=0;right=0;overflow=hidden;pointerEvents=1;" parent="133" vertex="1">
                    <mxGeometry x="194" width="196" height="48" as="geometry">
                        <mxRectangle width="196" height="48" as="alternateBounds"/>
                    </mxGeometry>
                </mxCell>
                <mxCell id="136" style="shape=partialRectangle;html=1;whiteSpace=wrap;collapsible=0;dropTarget=0;pointerEvents=0;fillColor=none;top=0;left=0;bottom=0;right=0;points=[[0,0.5],[1,0.5]];portConstraint=eastwest;" parent="114" vertex="1">
                    <mxGeometry y="358" width="390" height="45" as="geometry"/>
                </mxCell>
                <mxCell id="137" value="&lt;span style=&quot;text-align: left&quot;&gt;price&lt;/span&gt;" style="shape=partialRectangle;html=1;whiteSpace=wrap;connectable=0;fillColor=none;top=0;left=0;bottom=0;right=0;overflow=hidden;pointerEvents=1;" parent="136" vertex="1">
                    <mxGeometry width="194" height="45" as="geometry">
                        <mxRectangle width="194" height="45" as="alternateBounds"/>
                    </mxGeometry>
                </mxCell>
                <mxCell id="138" value="&lt;span&gt;presence: true&lt;br&gt;numericality: { in: 300..9999999}&lt;br&gt;&lt;/span&gt;" style="shape=partialRectangle;html=1;whiteSpace=wrap;connectable=0;fillColor=none;top=0;left=0;bottom=0;right=0;overflow=hidden;pointerEvents=1;" parent="136" vertex="1">
                    <mxGeometry x="194" width="196" height="45" as="geometry">
                        <mxRectangle width="196" height="45" as="alternateBounds"/>
                    </mxGeometry>
                </mxCell>
                <mxCell id="142" style="shape=partialRectangle;html=1;whiteSpace=wrap;collapsible=0;dropTarget=0;pointerEvents=0;fillColor=none;top=0;left=0;bottom=0;right=0;points=[[0,0.5],[1,0.5]];portConstraint=eastwest;" parent="114" vertex="1">
                    <mxGeometry y="403" width="390" height="47" as="geometry"/>
                </mxCell>
                <mxCell id="143" value="&lt;span style=&quot;text-align: left&quot;&gt;user&lt;/span&gt;" style="shape=partialRectangle;html=1;whiteSpace=wrap;connectable=0;fillColor=none;top=0;left=0;bottom=0;right=0;overflow=hidden;pointerEvents=1;" parent="142" vertex="1">
                    <mxGeometry width="194" height="47" as="geometry">
                        <mxRectangle width="194" height="47" as="alternateBounds"/>
                    </mxGeometry>
                </mxCell>
                <mxCell id="144" value="presence: true&lt;br&gt;references: user&lt;br&gt;foreign_key: true" style="shape=partialRectangle;html=1;whiteSpace=wrap;connectable=0;fillColor=none;top=0;left=0;bottom=0;right=0;overflow=hidden;pointerEvents=1;" parent="142" vertex="1">
                    <mxGeometry x="194" width="196" height="47" as="geometry">
                        <mxRectangle width="196" height="47" as="alternateBounds"/>
                    </mxGeometry>
                </mxCell>
                <mxCell id="145" value="Purchases" style="shape=table;startSize=30;container=1;collapsible=0;childLayout=tableLayout;fontStyle=1;align=center;pointerEvents=1;" parent="1" vertex="1">
                    <mxGeometry x="512" y="-950" width="390" height="92" as="geometry"/>
                </mxCell>
                <mxCell id="146" value="" style="shape=partialRectangle;html=1;whiteSpace=wrap;collapsible=0;dropTarget=0;pointerEvents=0;fillColor=none;top=0;left=0;bottom=0;right=0;points=[[0,0.5],[1,0.5]];portConstraint=eastwest;" parent="145" vertex="1">
                    <mxGeometry y="30" width="390" height="31" as="geometry"/>
                </mxCell>
                <mxCell id="147" value="&lt;span style=&quot;text-align: left&quot;&gt;user&lt;/span&gt;" style="shape=partialRectangle;html=1;whiteSpace=wrap;connectable=0;fillColor=none;top=0;left=0;bottom=0;right=0;overflow=hidden;pointerEvents=1;" parent="146" vertex="1">
                    <mxGeometry width="194" height="31" as="geometry">
                        <mxRectangle width="194" height="31" as="alternateBounds"/>
                    </mxGeometry>
                </mxCell>
                <mxCell id="148" value="presence: true" style="shape=partialRectangle;html=1;whiteSpace=wrap;connectable=0;fillColor=none;top=0;left=0;bottom=0;right=0;overflow=hidden;pointerEvents=1;" parent="146" vertex="1">
                    <mxGeometry x="194" width="196" height="31" as="geometry">
                        <mxRectangle width="196" height="31" as="alternateBounds"/>
                    </mxGeometry>
                </mxCell>
                <mxCell id="149" value="" style="shape=partialRectangle;html=1;whiteSpace=wrap;collapsible=0;dropTarget=0;pointerEvents=0;fillColor=none;top=0;left=0;bottom=0;right=0;points=[[0,0.5],[1,0.5]];portConstraint=eastwest;" parent="145" vertex="1">
                    <mxGeometry y="61" width="390" height="31" as="geometry"/>
                </mxCell>
                <mxCell id="150" value="&lt;span style=&quot;text-align: left&quot;&gt;item&lt;/span&gt;" style="shape=partialRectangle;html=1;whiteSpace=wrap;connectable=0;fillColor=none;top=0;left=0;bottom=0;right=0;overflow=hidden;pointerEvents=1;" parent="149" vertex="1">
                    <mxGeometry width="194" height="31" as="geometry">
                        <mxRectangle width="194" height="31" as="alternateBounds"/>
                    </mxGeometry>
                </mxCell>
                <mxCell id="151" value="&lt;span&gt;presence: true&lt;br&gt;uniqueness: true&lt;br&gt;format: { with: /@/}&lt;br&gt;&lt;/span&gt;" style="shape=partialRectangle;html=1;whiteSpace=wrap;connectable=0;fillColor=none;top=0;left=0;bottom=0;right=0;overflow=hidden;pointerEvents=1;" parent="149" vertex="1">
                    <mxGeometry x="194" width="196" height="31" as="geometry">
                        <mxRectangle width="196" height="31" as="alternateBounds"/>
                    </mxGeometry>
                </mxCell>
                <mxCell id="171" value="Shipping_addresses" style="shape=table;startSize=30;container=1;collapsible=0;childLayout=tableLayout;fontStyle=1;align=center;pointerEvents=1;" parent="1" vertex="1">
                    <mxGeometry x="10" y="-1010" width="420" height="340" as="geometry"/>
                </mxCell>
                <mxCell id="172" value="" style="shape=partialRectangle;html=1;whiteSpace=wrap;collapsible=0;dropTarget=0;pointerEvents=0;fillColor=none;top=0;left=0;bottom=0;right=0;points=[[0,0.5],[1,0.5]];portConstraint=eastwest;" parent="171" vertex="1">
                    <mxGeometry y="30" width="420" height="47" as="geometry"/>
                </mxCell>
                <mxCell id="173" value="&lt;span style=&quot;text-align: left&quot;&gt;postal_code&lt;/span&gt;" style="shape=partialRectangle;html=1;whiteSpace=wrap;connectable=0;fillColor=none;top=0;left=0;bottom=0;right=0;overflow=hidden;pointerEvents=1;" parent="172" vertex="1">
                    <mxGeometry width="209" height="47" as="geometry">
                        <mxRectangle width="209" height="47" as="alternateBounds"/>
                    </mxGeometry>
                </mxCell>
                <mxCell id="174" value="presence: true&lt;br&gt;format: { with: /\A\d{3}-\d{4}\z/ }" style="shape=partialRectangle;html=1;whiteSpace=wrap;connectable=0;fillColor=none;top=0;left=0;bottom=0;right=0;overflow=hidden;pointerEvents=1;" parent="172" vertex="1">
                    <mxGeometry x="209" width="211" height="47" as="geometry">
                        <mxRectangle width="211" height="47" as="alternateBounds"/>
                    </mxGeometry>
                </mxCell>
                <mxCell id="175" value="" style="shape=partialRectangle;html=1;whiteSpace=wrap;collapsible=0;dropTarget=0;pointerEvents=0;fillColor=none;top=0;left=0;bottom=0;right=0;points=[[0,0.5],[1,0.5]];portConstraint=eastwest;" parent="171" vertex="1">
                    <mxGeometry y="77" width="420" height="46" as="geometry"/>
                </mxCell>
                <mxCell id="176" value="&lt;span style=&quot;text-align: left&quot;&gt;prefecture_id&lt;/span&gt;" style="shape=partialRectangle;html=1;whiteSpace=wrap;connectable=0;fillColor=none;top=0;left=0;bottom=0;right=0;overflow=hidden;pointerEvents=1;" parent="175" vertex="1">
                    <mxGeometry width="209" height="46" as="geometry">
                        <mxRectangle width="209" height="46" as="alternateBounds"/>
                    </mxGeometry>
                </mxCell>
                <mxCell id="177" value="&lt;span&gt;presence: true&lt;br&gt;&lt;/span&gt;" style="shape=partialRectangle;html=1;whiteSpace=wrap;connectable=0;fillColor=none;top=0;left=0;bottom=0;right=0;overflow=hidden;pointerEvents=1;" parent="175" vertex="1">
                    <mxGeometry x="209" width="211" height="46" as="geometry">
                        <mxRectangle width="211" height="46" as="alternateBounds"/>
                    </mxGeometry>
                </mxCell>
                <mxCell id="178" value="" style="shape=partialRectangle;html=1;whiteSpace=wrap;collapsible=0;dropTarget=0;pointerEvents=0;fillColor=none;top=0;left=0;bottom=0;right=0;points=[[0,0.5],[1,0.5]];portConstraint=eastwest;" parent="171" vertex="1">
                    <mxGeometry y="123" width="420" height="49" as="geometry"/>
                </mxCell>
                <mxCell id="179" value="&lt;span style=&quot;text-align: left&quot;&gt;city&lt;/span&gt;" style="shape=partialRectangle;html=1;whiteSpace=wrap;connectable=0;fillColor=none;top=0;left=0;bottom=0;right=0;overflow=hidden;pointerEvents=1;" parent="178" vertex="1">
                    <mxGeometry width="209" height="49" as="geometry">
                        <mxRectangle width="209" height="49" as="alternateBounds"/>
                    </mxGeometry>
                </mxCell>
                <mxCell id="180" value="&lt;span&gt;presence: true&lt;br&gt;&lt;/span&gt;" style="shape=partialRectangle;html=1;whiteSpace=wrap;connectable=0;fillColor=none;top=0;left=0;bottom=0;right=0;overflow=hidden;pointerEvents=1;" parent="178" vertex="1">
                    <mxGeometry x="209" width="211" height="49" as="geometry">
                        <mxRectangle width="211" height="49" as="alternateBounds"/>
                    </mxGeometry>
                </mxCell>
                <mxCell id="181" style="shape=partialRectangle;html=1;whiteSpace=wrap;collapsible=0;dropTarget=0;pointerEvents=0;fillColor=none;top=0;left=0;bottom=0;right=0;points=[[0,0.5],[1,0.5]];portConstraint=eastwest;" parent="171" vertex="1">
                    <mxGeometry y="172" width="420" height="48" as="geometry"/>
                </mxCell>
                <mxCell id="182" value="&lt;span style=&quot;text-align: left&quot;&gt;address&lt;/span&gt;" style="shape=partialRectangle;html=1;whiteSpace=wrap;connectable=0;fillColor=none;top=0;left=0;bottom=0;right=0;overflow=hidden;pointerEvents=1;" parent="181" vertex="1">
                    <mxGeometry width="209" height="48" as="geometry">
                        <mxRectangle width="209" height="48" as="alternateBounds"/>
                    </mxGeometry>
                </mxCell>
                <mxCell id="183" value="presence: true" style="shape=partialRectangle;html=1;whiteSpace=wrap;connectable=0;fillColor=none;top=0;left=0;bottom=0;right=0;overflow=hidden;pointerEvents=1;" parent="181" vertex="1">
                    <mxGeometry x="209" width="211" height="48" as="geometry">
                        <mxRectangle width="211" height="48" as="alternateBounds"/>
                    </mxGeometry>
                </mxCell>
                <mxCell id="184" style="shape=partialRectangle;html=1;whiteSpace=wrap;collapsible=0;dropTarget=0;pointerEvents=0;fillColor=none;top=0;left=0;bottom=0;right=0;points=[[0,0.5],[1,0.5]];portConstraint=eastwest;" parent="171" vertex="1">
                    <mxGeometry y="220" width="420" height="38" as="geometry"/>
                </mxCell>
                <mxCell id="185" value="&lt;span style=&quot;text-align: left&quot;&gt;building_name&lt;/span&gt;" style="shape=partialRectangle;html=1;whiteSpace=wrap;connectable=0;fillColor=none;top=0;left=0;bottom=0;right=0;overflow=hidden;pointerEvents=1;" parent="184" vertex="1">
                    <mxGeometry width="209" height="38" as="geometry">
                        <mxRectangle width="209" height="38" as="alternateBounds"/>
                    </mxGeometry>
                </mxCell>
                <mxCell id="186" value="" style="shape=partialRectangle;html=1;whiteSpace=wrap;connectable=0;fillColor=none;top=0;left=0;bottom=0;right=0;overflow=hidden;pointerEvents=1;" parent="184" vertex="1">
                    <mxGeometry x="209" width="211" height="38" as="geometry">
                        <mxRectangle width="211" height="38" as="alternateBounds"/>
                    </mxGeometry>
                </mxCell>
                <mxCell id="197" style="shape=partialRectangle;html=1;whiteSpace=wrap;collapsible=0;dropTarget=0;pointerEvents=0;fillColor=none;top=0;left=0;bottom=0;right=0;points=[[0,0.5],[1,0.5]];portConstraint=eastwest;" parent="171" vertex="1">
                    <mxGeometry y="258" width="420" height="35" as="geometry"/>
                </mxCell>
                <mxCell id="198" value="phone_number" style="shape=partialRectangle;html=1;whiteSpace=wrap;connectable=0;fillColor=none;top=0;left=0;bottom=0;right=0;overflow=hidden;pointerEvents=1;" parent="197" vertex="1">
                    <mxGeometry width="209" height="35" as="geometry">
                        <mxRectangle width="209" height="35" as="alternateBounds"/>
                    </mxGeometry>
                </mxCell>
                <mxCell id="199" value="presence: true&lt;br&gt;format:{ with: /\A\d{10,11}\z/ }" style="shape=partialRectangle;html=1;whiteSpace=wrap;connectable=0;fillColor=none;top=0;left=0;bottom=0;right=0;overflow=hidden;pointerEvents=1;" parent="197" vertex="1">
                    <mxGeometry x="209" width="211" height="35" as="geometry">
                        <mxRectangle width="211" height="35" as="alternateBounds"/>
                    </mxGeometry>
                </mxCell>
                <mxCell id="218" style="shape=partialRectangle;html=1;whiteSpace=wrap;collapsible=0;dropTarget=0;pointerEvents=0;fillColor=none;top=0;left=0;bottom=0;right=0;points=[[0,0.5],[1,0.5]];portConstraint=eastwest;" parent="171" vertex="1">
                    <mxGeometry y="293" width="420" height="47" as="geometry"/>
                </mxCell>
                <mxCell id="219" value="purchase" style="shape=partialRectangle;html=1;whiteSpace=wrap;connectable=0;fillColor=none;top=0;left=0;bottom=0;right=0;overflow=hidden;pointerEvents=1;" parent="218" vertex="1">
                    <mxGeometry width="209" height="47" as="geometry">
                        <mxRectangle width="209" height="47" as="alternateBounds"/>
                    </mxGeometry>
                </mxCell>
                <mxCell id="220" value="presence: true&lt;br&gt;references :purchase&lt;br&gt;foreign_key: true" style="shape=partialRectangle;html=1;whiteSpace=wrap;connectable=0;fillColor=none;top=0;left=0;bottom=0;right=0;overflow=hidden;pointerEvents=1;" parent="218" vertex="1">
                    <mxGeometry x="209" width="211" height="47" as="geometry">
                        <mxRectangle width="211" height="47" as="alternateBounds"/>
                    </mxGeometry>
                </mxCell>
                <mxCell id="217" style="edgeStyle=none;html=1;fontSize=11;fontColor=#000000;endArrow=ERmany;endFill=0;strokeWidth=2;endSize=20;startArrow=ERone;startFill=0;targetPerimeterSpacing=0;sourcePerimeterSpacing=0;startSize=20;entryX=0.495;entryY=1.065;entryDx=0;entryDy=0;entryPerimeter=0;exitX=0.5;exitY=0;exitDx=0;exitDy=0;" parent="1" source="67" target="149" edge="1">
                    <mxGeometry relative="1" as="geometry">
                        <mxPoint x="638" y="-719" as="sourcePoint"/>
                        <mxPoint x="710" y="-301.77448598130843" as="targetPoint"/>
                    </mxGeometry>
                </mxCell>
                <mxCell id="221" style="edgeStyle=none;html=1;fontSize=11;fontColor=#000000;endArrow=ERone;endFill=0;strokeWidth=2;endSize=20;startArrow=ERone;startFill=0;targetPerimeterSpacing=0;sourcePerimeterSpacing=0;startSize=20;entryX=1;entryY=0.5;entryDx=0;entryDy=0;exitX=0.005;exitY=1;exitDx=0;exitDy=0;exitPerimeter=0;" parent="1" source="146" target="178" edge="1">
                    <mxGeometry relative="1" as="geometry">
                        <mxPoint x="447" y="-894.5" as="sourcePoint"/>
                        <mxPoint x="14.940000000000055" y="-889.989" as="targetPoint"/>
                    </mxGeometry>
                </mxCell>
                <mxCell id="222" style="html=1;fontSize=11;fontColor=#000000;endArrow=ERone;endFill=0;strokeWidth=2;endSize=20;startArrow=ERone;startFill=0;targetPerimeterSpacing=0;sourcePerimeterSpacing=0;startSize=20;exitX=0.5;exitY=0;exitDx=0;exitDy=0;entryX=-0.01;entryY=0.033;entryDx=0;entryDy=0;entryPerimeter=0;" parent="1" source="145" target="114" edge="1">
                    <mxGeometry relative="1" as="geometry">
                        <mxPoint x="730" y="-810" as="sourcePoint"/>
                        <mxPoint x="990" y="-980" as="targetPoint"/>
                        <Array as="points">
                            <mxPoint x="707" y="-1000"/>
                        </Array>
                    </mxGeometry>
                </mxCell>
            </root>
        </mxGraphModel>
    </diagram>
</mxfile>